# xmcd CD database file
#
# Track frame offsets:
#	150
#	12388
#	30967
#	45086
#	55703
#	68880
#	80714
#	92853
#	107520
#	119159
#	134826
#	149241
#	169363
#	187357
#	196213
#	209811
#	223527
#	236620
#	259579
#	273896
#	288852
#	304559
#	325064
#	344625
#
# Disc length: 4786 seconds
#
# Revision: 2
# Processed by: cddbd v1.5.2PL0 Copyright (c) Steve Scherf et al.
# Submitted via: CDex 1.51
#
DISCID=7912b018
DTITLE=Willie Nelson - Shotgun Willie
DYEAR=2006
DGENRE=Country
TTITLE0=Shot Gun Willie
TTITLE1=Whiskey River
TTITLE2=Sad Songs and Waltzes
TTITLE3=Local Memory
TTITLE4=Slow Down Old World
TTITLE5=Stay All Night (Stay A Little Longer)
TTITLE6=Devil In The Sleeping Bag
TTITLE7=She's Not For You
TTITLE8=Bubbles In My Beer
TTITLE9=You Look Like The Devil
TTITLE10=So Much To Do
TTITLE11=A Song For Now
TTITLE12=I Gotta Have Something I Ain't Got (Bonus, Outtake)
TTITLE13=I'm So Ashamed (Bonus, Outtake)
TTITLE14=My Cricket and Me (Bonus, Solo Outtake)
TTITLE15=Both Ends Of The Candle (Bonus, Outtake)
TTITLE16=Slowdown Old World (Bonus, Alt. Version)
TTITLE17=Under The Double Eagle (Bonus, Outtake)
TTITLE18=So Much To Do (Bonus, Alt. Version)
TTITLE19=My Cricket and Me (Bonus, Prev. Unrel., Band Outtake)
TTITLE20=Save Your Tears (Bonus, Prev. Unrel., Outtake)
TTITLE21=A Song For You (Bonus, Prev. Unrel., Alt. Version)
TTITLE22=Whiskey River (Bonus, Prev. Unrel., Alt. Version)
TTITLE23=I Drank All Of Our Precious Love Away (Bonus, Prev. Unrel., Outtake)
EXTD=YEAR: 2006
EXTT0=
EXTT1=
EXTT2=
EXTT3=
EXTT4=
EXTT5=
EXTT6=
EXTT7=
EXTT8=
EXTT9=
EXTT10=
EXTT11=
EXTT12=
EXTT13=
EXTT14=
EXTT15=
EXTT16=
EXTT17=
EXTT18=
EXTT19=
EXTT20=
EXTT21=
EXTT22=
EXTT23=
PLAYORDER=
